ffmpeg started on 2016-12-01 at 06:10:48
Report written to "Output/x264/results/ffmpeg/old_town_cross_2160p50medium7000k.log"
Command line:
Tools/ffmpeg/ffmpeg -benchmark -y -i Input/y4m/old_town_cross_2160p50.y4m -c:v libx264 -preset medium -b:v 7000k -an Output/x264/encoded/old_town_cross_2160p50medium7000k.mkv
ffmpeg version N-82227-gdb23fde Copyright (c) 2000-2016 the FFmpeg developers
  built with gcc 5.4.0 (Ubuntu 5.4.0-6ubuntu1~16.04.2) 20160609
  configuration: --prefix=/home/jaroslav/ffmpeg_build --pkg-config-flags=--static --extra-cflags=-I/home/jaroslav/ffmpeg_build/include --extra-ldflags=-L/home/jaroslav/ffmpeg_build/lib --bindir=/home/jaroslav/bin --enable-gpl --enable-libass --enable-libfdk-aac --enable-libfreetype --enable-libmp3lame --enable-libopus --enable-libtheora --enable-libvorbis --enable-libvpx --enable-libx264 --enable-libx265 --enable-nvenc --enable-libmfx --enable-libxvid --enable-libgsm --enable-libopencore-amrnb --enable-version3 --enable-nonfree
  libavutil      55. 35.100 / 55. 35.100
  libavcodec     57. 66.101 / 57. 66.101
  libavformat    57. 57.100 / 57. 57.100
  libavdevice    57.  2.100 / 57.  2.100
  libavfilter     6. 66.100 /  6. 66.100
  libswscale      4.  3.100 /  4.  3.100
  libswresample   2.  4.100 /  2.  4.100
  libpostproc    54.  2.100 / 54.  2.100
Input #0, yuv4mpegpipe, from 'Input/y4m/old_town_cross_2160p50.y4m':
  Duration: 00:00:10.00, start: 0.000000, bitrate: 4976642 kb/s
    Stream #0:0: Video: rawvideo (I420 / 0x30323449), yuv420p(progressive), 3840x2160, SAR 1:1 DAR 16:9, 50 fps, 50 tbr, 50 tbn, 50 tbc
[libx264 @ 0x4381120] using SAR=1/1
[libx264 @ 0x4381120] using cpu capabilities: MMX2 SSE2Fast SSSE3 SSE4.2 AVX FMA3 AVX2 LZCNT BMI2
[libx264 @ 0x4381120] profile High, level 5.2
[libx264 @ 0x4381120] 264 - core 148 - H.264/MPEG-4 AVC codec - Copyleft 2003-2016 - http://www.videolan.org/x264.html - options: cabac=1 ref=3 deblock=1:0:0 analyse=0x3:0x113 me=hex subme=7 psy=1 psy_rd=1.00:0.00 mixed_ref=1 me_range=16 chroma_me=1 trellis=1 8x8dct=1 cqm=0 deadzone=21,11 fast_pskip=1 chroma_qp_offset=-2 threads=6 lookahead_threads=1 sliced_threads=0 nr=0 decimate=1 interlaced=0 bluray_compat=0 constrained_intra=0 bframes=3 b_pyramid=2 b_adapt=1 b_bias=0 direct=1 weightb=1 open_gop=0 weightp=2 keyint=250 keyint_min=25 scenecut=40 intra_refresh=0 rc_lookahead=40 rc=abr mbtree=1 bitrate=7000 ratetol=1.0 qcomp=0.60 qpmin=0 qpmax=69 qpstep=4 ip_ratio=1.40 aq=1:1.00
Output #0, matroska, to 'Output/x264/encoded/old_town_cross_2160p50medium7000k.mkv':
  Metadata:
    encoder         : Lavf57.57.100
    Stream #0:0: Video: h264 (libx264) (H264 / 0x34363248), yuv420p, 3840x2160 [SAR 1:1 DAR 16:9], q=-1--1, 7000 kb/s, 50 fps, 1k tbn, 50 tbc
    Metadata:
      encoder         : Lavc57.66.101 libx264
    Side data:
      cpb: bitrate max/min/avg: 0/0/7000000 buffer size: 0 vbv_delay: -1
Stream mapping:
  Stream #0:0 -> #0:0 (rawvideo (native) -> h264 (libx264))
Press [q] to stop, [?] for help
frame=   47 fps= 18 q=0.0 size=       0kB time=00:00:00.00 bitrate=N/A speed=   0x    frame=   56 fps= 18 q=42.0 size=       1kB time=00:00:00.06 bitrate=  96.3kbits/s speed=0.0199x    frame=   64 fps= 18 q=41.0 size=       1kB time=00:00:00.22 bitrate=  26.6kbits/s speed=0.0614x    frame=   71 fps= 17 q=38.0 size=       1kB time=00:00:00.36 bitrate=  16.3kbits/s speed=0.0877x    frame=   79 fps= 17 q=37.0 size=       1kB time=00:00:00.52 bitrate=  11.3kbits/s speed=0.112x    frame=   86 fps= 17 q=36.0 size=       1kB time=00:00:00.66 bitrate=   8.9kbits/s speed=0.127x    frame=   94 fps= 16 q=36.0 size=       1kB time=00:00:00.82 bitrate=   7.2kbits/s speed=0.142x    frame=  102 fps= 16 q=36.0 size=       1kB time=00:00:00.98 bitrate=   6.0kbits/s speed=0.155x    frame=  107 fps= 16 q=35.0 size=       1kB time=00:00:01.08 bitrate=   5.4kbits/s speed=0.158x    frame=  113 fps= 15 q=35.0 size=       1kB time=00:00:01.20 bitrate=   4.9kbits/s speed=0.163x    frame=  122 fps= 15 q=35.0 size=       1kB time=00:00:01.38 bitrate=   4.3kbits/s speed=0.172x    frame=  130 fps= 15 q=35.0 size=       1kB time=00:00:01.54 bitrate=   3.8kbits/s speed=0.178x    frame=  137 fps= 15 q=35.0 size=       1kB time=00:00:01.68 bitrate=   3.5kbits/s speed=0.183x    frame=  145 fps= 15 q=35.0 size=       1kB time=00:00:01.84 bitrate=   3.2kbits/s speed=0.188x    frame=  150 fps= 15 q=35.0 size=       1kB time=00:00:01.94 bitrate=   3.0kbits/s speed=0.188x    frame=  158 fps= 15 q=35.0 size=       1kB time=00:00:02.10 bitrate=   2.8kbits/s speed=0.193x    frame=  165 fps= 14 q=35.0 size=       1kB time=00:00:02.24 bitrate=   2.6kbits/s speed=0.194x    frame=  174 fps= 14 q=35.0 size=       1kB time=00:00:02.42 bitrate=   2.4kbits/s speed=0.197x    frame=  181 fps= 14 q=35.0 size=       1kB time=00:00:02.56 bitrate=   2.3kbits/s speed=0.199x    frame=  189 fps= 14 q=35.0 size=       1kB time=00:00:02.72 bitrate=   2.2kbits/s speed=0.203x    frame=  196 fps= 14 q=35.0 size=       1kB time=00:00:02.86 bitrate=   2.1kbits/s speed=0.205x    frame=  202 fps= 14 q=35.0 size=       1kB time=00:00:02.98 bitrate=   2.0kbits/s speed=0.205x    frame=  210 fps= 14 q=35.0 size=       1kB time=00:00:03.14 bitrate=   1.9kbits/s speed=0.207x    frame=  218 fps= 14 q=35.0 size=       1kB time=00:00:03.30 bitrate=   1.8kbits/s speed=0.209x    frame=  223 fps= 14 q=35.0 size=       1kB time=00:00:03.40 bitrate=   1.7kbits/s speed=0.209x    frame=  229 fps= 14 q=35.0 size=       1kB time=00:00:03.52 bitrate=   1.7kbits/s speed=0.21x    frame=  237 fps= 14 q=35.0 size=       1kB time=00:00:03.68 bitrate=   1.6kbits/s speed=0.212x    frame=  244 fps= 14 q=35.0 size=       1kB time=00:00:03.82 bitrate=   1.5kbits/s speed=0.213x    frame=  251 fps= 14 q=35.0 size=       1kB time=00:00:03.96 bitrate=   1.5kbits/s speed=0.214x    frame=  258 fps= 13 q=35.0 size=       1kB time=00:00:04.10 bitrate=   1.4kbits/s speed=0.214x    frame=  262 fps= 13 q=35.0 size=       1kB time=00:00:04.18 bitrate=   1.4kbits/s speed=0.206x    frame=  263 fps= 13 q=35.0 size=       1kB time=00:00:04.20 bitrate=   1.4kbits/s speed=0.201x    frame=  265 fps= 12 q=35.0 size=       1kB time=00:00:04.24 bitrate=   1.4kbits/s speed=0.196x    frame=  270 fps= 12 q=35.0 size=       1kB time=00:00:04.34 bitrate=   1.4kbits/s speed=0.195x    frame=  275 fps= 12 q=35.0 size=       1kB time=00:00:04.44 bitrate=   1.3kbits/s speed=0.194x    frame=  280 fps= 12 q=35.0 size=       1kB time=00:00:04.54 bitrate=   1.3kbits/s speed=0.193x    frame=  285 fps= 12 q=35.0 size=       1kB time=00:00:04.64 bitrate=   1.3kbits/s speed=0.193x    frame=  290 fps= 12 q=35.0 size=       1kB time=00:00:04.74 bitrate=   1.2kbits/s speed=0.192x    frame=  295 fps= 12 q=32.0 size=       1kB time=00:00:04.84 bitrate=   1.2kbits/s speed=0.191x    frame=  302 fps= 12 q=36.0 size=    4084kB time=00:00:04.98 bitrate=6716.6kbits/s speed=0.192x    frame=  307 fps= 12 q=36.0 size=    4084kB time=00:00:05.08 bitrate=6584.4kbits/s speed=0.193x    frame=  315 fps= 12 q=36.0 size=    4084kB time=00:00:05.24 bitrate=6383.4kbits/s speed=0.194x    frame=  323 fps= 12 q=36.0 size=    4084kB time=00:00:05.40 bitrate=6194.3kbits/s speed=0.196x    frame=  327 fps= 12 q=36.0 size=    4084kB time=00:00:05.48 bitrate=6103.9kbits/s speed=0.196x    frame=  334 fps= 12 q=36.0 size=    4084kB time=00:00:05.62 bitrate=5951.8kbits/s speed=0.197x    frame=  340 fps= 12 q=36.0 size=    4084kB time=00:00:05.74 bitrate=5827.4kbits/s speed=0.197x    frame=  347 fps= 12 q=36.0 size=    4084kB time=00:00:05.88 bitrate=5688.7kbits/s speed=0.198x    frame=  355 fps= 12 q=36.0 size=    4084kB time=00:00:06.04 bitrate=5538.0kbits/s speed=0.199x    frame=  363 fps= 12 q=36.0 size=    4084kB time=00:00:06.20 bitrate=5395.1kbits/s speed=0.201x    frame=  371 fps= 12 q=36.0 size=    4084kB time=00:00:06.36 bitrate=5259.4kbits/s speed=0.201x    frame=  379 fps= 12 q=36.0 size=    4084kB time=00:00:06.52 bitrate=5130.4kbits/s speed=0.203x    frame=  384 fps= 12 q=36.0 size=    4084kB time=00:00:06.62 bitrate=5052.9kbits/s speed=0.203x    frame=  391 fps= 12 q=36.0 size=    4084kB time=00:00:06.76 bitrate=4948.3kbits/s speed=0.204x    frame=  396 fps= 12 q=36.0 size=    4084kB time=00:00:06.86 bitrate=4876.2kbits/s speed=0.204x    frame=  403 fps= 12 q=36.0 size=    4084kB time=00:00:07.00 bitrate=4778.6kbits/s speed=0.204x    frame=  409 fps= 12 q=36.0 size=    4084kB time=00:00:07.12 bitrate=4698.1kbits/s speed=0.205x    frame=  417 fps= 12 q=36.0 size=    4084kB time=00:00:07.28 bitrate=4594.9kbits/s speed=0.206x    frame=  423 fps= 12 q=36.0 size=    4084kB time=00:00:07.40 bitrate=4520.4kbits/s speed=0.206x    frame=  431 fps= 12 q=36.0 size=    4084kB time=00:00:07.56 bitrate=4424.7kbits/s speed=0.207x    frame=  436 fps= 12 q=36.0 size=    4084kB time=00:00:07.66 bitrate=4367.0kbits/s speed=0.207x    frame=  443 fps= 12 q=36.0 size=    4084kB time=00:00:07.80 bitrate=4288.6kbits/s speed=0.208x    frame=  450 fps= 12 q=36.0 size=    4084kB time=00:00:07.94 bitrate=4213.0kbits/s speed=0.208x    frame=  456 fps= 12 q=36.0 size=    4084kB time=00:00:08.06 bitrate=4150.3kbits/s speed=0.208x    frame=  463 fps= 12 q=36.0 size=    4084kB time=00:00:08.20 bitrate=4079.4kbits/s speed=0.209x    frame=  471 fps= 12 q=36.0 size=    4084kB time=00:00:08.36 bitrate=4001.4kbits/s speed=0.209x    frame=  479 fps= 12 q=36.0 size=    4084kB time=00:00:08.52 bitrate=3926.2kbits/s speed=0.211x    frame=  485 fps= 12 q=36.0 size=    4084kB time=00:00:08.64 bitrate=3871.7kbits/s speed=0.211x    frame=  491 fps= 12 q=36.0 size=    4084kB time=00:00:08.76 bitrate=3818.7kbits/s speed=0.211x    frame=  499 fps= 12 q=35.0 size=    4084kB time=00:00:08.92 bitrate=3750.2kbits/s speed=0.212x    frame=  500 fps= 11 q=-1.0 Lsize=    8608kB time=00:00:09.94 bitrate=7093.8kbits/s speed=0.213x    
video:8604kB audio:0kB subtitle:0kB other streams:0kB global headers:0kB muxing overhead: 0.051610%
bench: utime=158.720s
bench: maxrss=1925628kB
[libx264 @ 0x4381120] frame I:3     Avg QP:31.75  size:243720
[libx264 @ 0x4381120] frame P:183   Avg QP:33.52  size: 23723
[libx264 @ 0x4381120] frame B:314   Avg QP:35.18  size: 11902
[libx264 @ 0x4381120] consecutive B-frames: 16.0%  0.8%  0.0% 83.2%
[libx264 @ 0x4381120] mb I  I16..4: 12.4% 73.7% 13.8%
[libx264 @ 0x4381120] mb P  I16..4:  0.1%  0.1%  0.0%  P16..4: 25.5%  1.3%  1.0%  0.0%  0.0%    skip:72.0%
[libx264 @ 0x4381120] mb B  I16..4:  0.0%  0.0%  0.0%  B16..8: 34.3%  0.1%  0.0%  direct: 0.0%  skip:65.6%  L0:45.7% L1:54.2% BI: 0.0%
[libx264 @ 0x4381120] final ratefactor: 27.67
[libx264 @ 0x4381120] 8x8 transform intra:71.0% inter:94.0%
[libx264 @ 0x4381120] coded y,uvDC,uvAC intra: 54.9% 58.2% 32.5% inter: 3.8% 3.6% 0.0%
[libx264 @ 0x4381120] i16 v,h,dc,p: 33% 40% 11% 16%
[libx264 @ 0x4381120] i8 v,h,dc,ddl,ddr,vr,hd,vl,hu: 22% 21% 25%  5%  5%  5%  8%  4%  6%
[libx264 @ 0x4381120] i4 v,h,dc,ddl,ddr,vr,hd,vl,hu: 23% 30% 10%  6%  6%  6%  9%  4%  6%
[libx264 @ 0x4381120] i8c dc,h,v,p: 69% 16% 13%  2%
[libx264 @ 0x4381120] Weighted P-Frames: Y:0.5% UV:0.0%
[libx264 @ 0x4381120] ref P L0: 58.5% 32.5%  7.3%  1.7%  0.0%
[libx264 @ 0x4381120] ref B L0: 90.2%  8.8%  1.0%
[libx264 @ 0x4381120] ref B L1: 96.9%  3.1%
[libx264 @ 0x4381120] kb/s:7047.73
